<svg width="16" height="16" viewBox="0 0 16 16" fill="none" xmlns="http://www.w3.org/2000/svg">
<path d="M15.9023 15.431C15.1654 14.694 14.9674 13.2546 14.7383 11.5876C14.4306 9.34529 14.0452 6.57692 12.1217 4.34983L13.138 3.33358H14.6667C14.8054 3.33358 14.9297 3.24733 14.9785 3.11743L15.9785 0.450838C16.0247 0.328432 15.9948 0.190432 15.9023 0.0979944C15.8099 0.005557 15.6732 -0.0250367 15.5494 0.0214945L12.8828 1.02146C12.7526 1.07031 12.6666 1.19465 12.6666 1.33362V2.86224L11.6513 3.87758C9.43511 1.9568 6.65974 1.57034 4.41209 1.26168C2.74543 1.03256 1.306 0.834618 0.568999 0.0979944C0.438781 -0.0322242 0.227843 -0.0322242 0.0976561 0.0979944C0.0325624 0.163088 0 0.248369 0 0.333682C0 0.379213 0.0108125 0.424088 0.029375 0.466525L4.60356 10.9252L4.19531 11.3334H2.33334C2.24481 11.3334 2.16015 11.3686 2.09765 11.4311L0.0976561 13.431C0.00259374 13.5264 -0.0260312 13.6696 0.025375 13.7943C0.0767811 13.919 0.198562 14 0.333312 14H2V15.6667C2 15.8014 2.08137 15.9232 2.20572 15.9746C2.24675 15.9918 2.29034 16 2.33331 16C2.4199 16 2.50518 15.9662 2.569 15.9023L4.56899 13.9024C4.63149 13.8399 4.66665 13.7553 4.66665 13.6667V11.8048L5.07487 11.3966C6.54524 12.0396 15.5339 15.9707 15.5339 15.9707C15.5765 15.9893 15.6213 16 15.6667 16C15.7519 16 15.8372 15.9674 15.9024 15.9023C15.9674 15.8372 16 15.7519 16 15.6666C16 15.5813 15.9674 15.4961 15.9023 15.431ZM3.66665 13.8619L3 14.5286V13H1.47134L2.138 12.3333H3.33331C3.51756 12.3333 3.66665 12.4824 3.66665 12.6667V13.8619ZM1.17106 1.41674C2.1774 2.05927 3.36137 2.48196 4.59765 2.91893C6.41565 3.56133 8.28855 4.23421 9.85052 5.67808L5.10952 10.4191L1.17106 1.41674ZM5.5809 10.8904L10.3219 6.14945C11.7658 7.71142 12.4386 9.58398 13.0807 11.4017C13.5179 12.6383 13.9408 13.8225 14.5833 14.829L5.5809 10.8904Z" fill="#AAAAAA"/>
</svg>
