<svg width="12" height="12" viewBox="0 0 12 12" fill="none" xmlns="http://www.w3.org/2000/svg">
<path d="M11.9267 11.5732C11.374 11.0205 11.2256 9.94095 11.0537 8.69072C10.8229 7.00897 10.5339 4.93269 9.0913 3.26237L9.8535 2.50019H11C11.104 2.50019 11.1973 2.4355 11.2339 2.33807L11.9839 0.338128C12.0185 0.246324 11.9961 0.142824 11.9267 0.0734957C11.8574 0.00416775 11.7549 -0.0187775 11.6621 0.0161209L9.66209 0.766096C9.56443 0.802729 9.49997 0.895986 9.49997 1.00021V2.14668L8.73844 2.90819C7.07633 1.4676 4.9948 1.17775 3.30906 0.94626C2.05907 0.774416 0.979498 0.625964 0.426749 0.0734957C0.329085 -0.0241681 0.170882 -0.0241681 0.073242 0.0734957C0.0244218 0.122316 0 0.186277 0 0.250261C0 0.284409 0.00810936 0.318066 0.0220312 0.349894L3.45267 8.19389L3.14648 8.50006H1.75C1.68361 8.50006 1.62011 8.52643 1.57324 8.5733L0.073242 10.0733C0.00194531 10.1448 -0.0195234 10.2522 0.0190312 10.3457C0.0575858 10.4392 0.148922 10.5 0.249984 10.5H1.5V11.75C1.5 11.8511 1.56103 11.9424 1.65429 11.9809C1.68506 11.9939 1.71775 12 1.74998 12C1.81493 12 1.87889 11.9746 1.92675 11.9268L3.42674 10.4268C3.47362 10.3799 3.49999 10.3164 3.49999 10.25V8.85357L3.80615 8.54743C4.90893 9.02972 11.6504 11.978 11.6504 11.978C11.6824 11.992 11.7159 12 11.75 12C11.814 12 11.8779 11.9756 11.9268 11.9267C11.9756 11.8779 12 11.814 12 11.75C12 11.686 11.9756 11.622 11.9267 11.5732ZM2.74999 10.3965L2.25 10.8965V9.74998H1.10351L1.6035 9.24999H2.49998C2.63817 9.24999 2.74999 9.36181 2.74999 9.49999V10.3965ZM0.878295 1.06256C1.63305 1.54445 2.52103 1.86147 3.44824 2.18919C4.81173 2.671 6.21641 3.17565 7.38788 4.25856L3.83214 7.8143L0.878295 1.06256ZM4.18567 8.16783L7.74142 4.61209C8.82432 5.78356 9.32897 7.18798 9.81054 8.55127C10.1385 9.47869 10.4556 10.3669 10.9375 11.1217L4.18567 8.16783Z" fill="#FFB964"/>
</svg>
