<svg width="46" height="53" viewBox="0 0 46 53" fill="none" xmlns="http://www.w3.org/2000/svg">
<g clip-path="url(#clip0)">
<path d="M43.3405 23.5064L40.1072 26.4397L15.5521 21.9393L9.94531 6.02728L35.7691 9.76421L43.3405 23.5064Z" fill="#44170D"/>
<path d="M18.2117 7.07202C16.6975 3.05383 13.1779 1.68764 10.2722 3.7771V2.25018L7.32568 4.98256L13.9556 22.6224L16.329 20.3321L16.0835 19.7293C17.4474 17.9424 18.3531 15.8593 18.7235 13.6561C19.0939 11.4529 18.9183 9.19451 18.2117 7.07202Z" fill="#5A5650"/>
<path d="M19.1115 7.31304C18.8111 6.47816 18.3338 5.71522 17.7114 5.07448C17.089 4.43374 16.3355 3.92974 15.5003 3.59566C14.6651 3.26159 13.7673 3.10503 12.866 3.13629C11.9648 3.16755 11.0806 3.38593 10.2715 3.77704L16.1647 20.332L17.3515 19.6891C18.6451 17.921 19.4813 15.8705 19.7879 13.7144C20.0945 11.5583 19.8625 9.36137 19.1115 7.31304Z" fill="#38120B"/>
<path d="M40.6796 6.83095L13.6281 2.81275C12.7247 2.68207 11.8026 2.8518 11.0088 3.29493C12.1547 3.53602 37.242 7.87567 37.242 7.87567L40.6796 6.83095Z" fill="#9D9C9E"/>
<path d="M42.3576 25.837C44.0884 23.8214 45.2581 21.4 45.7529 18.8087C46.2478 16.2174 46.051 13.5445 45.1814 11.0501C43.5035 6.63006 39.4518 5.46478 36.4233 8.47843L42.3576 25.837Z" fill="#4F4C47"/>
<path d="M42.8079 23.5065C43.961 21.6792 44.6749 19.6179 44.8951 17.4792C45.0978 15.9884 45.0004 14.473 44.6086 13.019C44.5588 12.7994 44.4904 12.5844 44.404 12.3761C43.2172 9.24188 40.3114 7.91587 37.9377 9.88479L42.8079 23.5065Z" fill="#6C2B13"/>
<g style="mix-blend-mode:multiply" opacity="0.3">
<path d="M44.281 21.8187L44.1173 22.0197L36.7507 1.80813L36.8735 1.6474L44.281 21.8187Z" fill="#673600"/>
</g>
<g style="mix-blend-mode:multiply" opacity="0.3">
<path d="M45.264 19.3677L45.1003 19.5686L37.8975 0.20091L38.0202 0L45.264 19.3677Z" fill="#5E3200"/>
</g>
<g style="mix-blend-mode:screen" opacity="0.5">
<g style="mix-blend-mode:screen" opacity="0.4">
<path d="M44.1173 21.9794L43.9946 22.1803L36.6689 1.96877L36.7917 1.80804L44.1173 21.9794Z" fill="#AC5A00"/>
</g>
<g style="mix-blend-mode:screen" opacity="0.4">
<path d="M45.1405 19.5685L44.9768 19.7293L37.7739 0.361554L37.8967 0.160645L45.1405 19.5685Z" fill="#AC5A00"/>
</g>
</g>
<g style="mix-blend-mode:multiply" opacity="0.21">
<path d="M42.0306 22.7029C42.0306 22.7029 42.0306 22.3011 42.0306 21.8992C41.9415 21.5978 41.832 21.3025 41.7031 21.0152C41.7031 20.7741 41.7031 20.3723 41.7031 20.0911C41.7031 19.8098 41.4167 19.2472 41.253 18.8856C41.0893 18.524 41.253 19.7294 41.4986 20.2116C41.7441 20.6938 41.9487 21.7385 41.9487 21.9796C41.9487 22.2207 41.3348 21.9796 41.2121 21.9796C41.1057 21.6942 41.1057 21.381 41.2121 21.0956C41.2691 20.5076 41.2691 19.9156 41.2121 19.3276C41.2121 18.8052 40.0253 15.9925 39.7798 15.3094C39.4696 14.4875 39.1144 13.6827 38.7157 12.8985C38.3421 12.3283 37.9026 11.8025 37.406 11.3314C37.2014 11.0903 36.9968 10.4474 37.1195 10.367C37.2423 10.2867 37.8562 9.72411 38.1427 9.92502C38.4291 10.1259 38.9202 11.693 39.1248 12.0547C39.5688 12.9392 39.9518 13.852 40.2709 14.787C40.5164 15.5907 41.6622 18.8052 41.9487 19.6491C42.2352 20.4929 42.8491 22.8636 43.0128 23.2654C43.1765 23.6673 43.2583 22.9842 43.0128 22.7832C42.7494 21.6894 42.4075 20.6152 41.9897 19.5687C41.7032 19.0865 40.6391 15.8318 40.1889 14.6665C39.7388 13.5012 39.575 12.8985 39.1248 11.8136C38.8688 11.0418 38.5256 10.3005 38.1017 9.60356C37.7743 9.24192 37.3241 10.2465 37.0376 10.0456H36.6694C36.5679 10.3042 36.4992 10.5741 36.4648 10.8492V12.0948L37.1605 14.0638L38.1427 16.5149C38.5085 17.1923 38.9329 17.8376 39.4113 18.4436H39.9434C39.9596 18.2296 39.9596 18.0147 39.9434 17.8007C39.9434 17.439 39.9434 17.3989 39.9434 17.0774C39.9434 16.756 39.3295 15.6309 39.2068 15.3094C39.084 14.9879 38.8794 14.4656 38.7566 14.1843C38.5636 13.803 38.3155 13.4512 38.02 13.1396C37.7745 12.8985 37.447 12.0547 37.6516 12.0948C37.8562 12.135 38.1017 12.4967 38.3472 12.7779C38.7416 13.5174 39.0835 14.2826 39.3704 15.0683L40.0663 16.756C40.0663 17.1176 40.4754 18.0016 40.6391 18.4034C40.6775 18.8312 40.6775 19.2615 40.6391 19.6892C40.7087 20.0746 40.7087 20.4691 40.6391 20.8545C40.6839 21.2364 40.7661 21.6132 40.8846 21.9796C40.9817 22.2489 41.1352 22.4952 41.335 22.7029C41.335 22.7029 41.8669 22.8234 42.0306 22.7029ZM38.3472 9.24192C38.3472 9.24192 39.3705 12.0145 39.4523 12.2154C39.4263 12.321 39.4263 12.4312 39.4523 12.5369C39.4523 12.5369 38.6747 9.80447 38.6338 9.56338C38.5928 9.32229 38.6338 9.00084 38.6338 8.84011C38.6338 8.67938 38.6338 8.55883 38.6338 8.35792C38.6338 8.15701 38.6337 7.99629 38.8793 8.11683C39.1248 8.23738 38.8793 8.43829 38.8793 8.71956C38.8793 9.00084 38.8793 9.20174 38.8793 9.68393C38.8793 10.1661 39.3705 12.0145 39.4933 12.6172C39.6161 13.2199 42.7263 21.8189 42.7672 22.1403C42.8082 22.4618 43.0128 22.1403 42.7672 21.8189C42.5217 21.4974 39.6161 13.0592 39.4933 12.5369C39.3705 12.0145 39.4933 12.135 39.2477 11.4921C39.0022 10.8492 39.2477 10.9296 39.2477 10.2063C39.2477 9.48302 39.2478 9.24193 39.0432 8.79993C38.9977 8.50695 38.9977 8.2089 39.0432 7.91592C39.0432 7.67483 39.3296 7.39356 39.2887 7.67483C39.2478 7.9561 39.2886 8.11683 39.4933 8.67938C39.6979 9.24193 39.4933 9.92502 39.4933 10.4474C39.4933 10.9698 40.8028 14.4656 41.1711 15.9121C41.5394 17.3587 42.89 20.292 42.9718 20.8947L43.3812 21.4171C43.8062 20.9307 44.2023 20.4209 44.568 19.8901V18.6043C44.5427 18.9201 44.4739 19.231 44.3634 19.5285C44.3634 19.5285 44.3634 19.5285 44.0769 19.5285C43.8759 19.3373 43.722 19.1037 43.6268 18.8454C43.419 18.4204 43.2545 17.9762 43.1357 17.5194C43.1357 17.0774 42.8083 16.5952 42.6446 16.0327C42.4809 15.4701 41.0075 11.0903 41.0075 11.0903C41.0075 11.0903 40.4344 8.23737 40.3935 7.87574C40.3526 7.5141 40.7618 10.8894 40.8846 11.2912C41.0074 11.693 42.399 15.7514 42.6036 16.4345L43.1764 18.0418C43.1764 18.524 43.5448 19.0463 43.7494 19.5285C43.954 20.0107 44.1587 20.0911 43.995 20.292C43.8313 20.4929 43.6266 19.9705 43.5039 19.6089L42.8901 18.3632C42.8901 17.9212 42.3989 16.756 42.2352 16.1934C42.0715 15.6309 41.3349 14.0236 40.9665 12.8181C40.667 12.0484 40.5144 11.2312 40.5164 10.4072C40.5164 10.4072 40.5165 8.03647 40.3118 7.71501C40.1072 7.39356 40.3118 10.0456 40.3118 10.4072C40.3628 11.0159 40.4585 11.6202 40.5983 12.2154C40.9807 13.5807 41.4452 14.9224 41.9897 16.2336C42.2761 17.0372 42.6855 18.0418 42.8492 18.7249C43.0129 19.408 43.4221 19.9705 43.5448 20.3723C43.6676 20.7741 43.5448 21.0956 43.5448 20.8947C43.5448 20.6938 42.0305 16.8765 41.6622 15.7514C40.9731 13.7079 40.3994 11.6287 39.9434 9.5232C39.9712 9.21575 39.9712 8.90647 39.9434 8.59901C39.9677 8.19755 39.9677 7.79502 39.9434 7.39356C39.8905 7.26906 39.8066 7.15963 39.6993 7.07537C39.5921 6.9911 39.465 6.9347 39.3297 6.91137C39.0432 6.91137 38.8384 7.27301 38.6747 7.47392C38.511 7.67483 38.6747 8.03647 38.6747 8.39811C38.6747 8.75974 38.6747 8.59902 38.6747 8.79993C38.5514 8.93663 38.4417 9.08464 38.3472 9.24192ZM40.9256 9.5232C41.1711 10.1259 42.3581 13.903 42.6036 14.5058C42.8492 15.1085 43.9541 18.524 44.3634 19.2071C44.3982 19.0617 44.3982 18.9104 44.3634 18.7651C44.3634 18.4034 43.1766 15.4701 42.6446 14.1441C42.1126 12.8181 41.4168 10.1259 41.335 9.84466C41.2531 9.56339 39.8616 6.99174 39.7798 6.50956C39.6979 6.02737 40.1889 6.50956 40.1889 6.50956C40.1889 6.50956 41.2122 9.12138 41.335 9.60356C41.4577 10.0857 42.8491 13.6218 43.0538 13.9834C43.2584 14.345 44.609 17.7605 44.9364 18.2427C45.2638 18.7249 44.9364 17.7605 44.9364 17.7605C44.9364 17.7605 43.3402 14.3049 43.2583 13.9834C43.1765 13.6619 41.5805 9.72411 41.5395 9.5232C41.4986 9.32229 40.4756 6.75065 40.3528 6.46937C40.3133 6.40218 40.2923 6.32596 40.2923 6.24837C40.2923 6.17079 40.3133 6.09456 40.3528 6.02737C40.3528 6.02737 41.5804 9.24193 41.7441 9.80448C41.9078 10.367 43.2176 13.8227 43.4222 14.0236L45.3865 17.3587C45.5912 17.64 45.3865 16.997 45.3865 16.997L44.4453 15.4701C44.4453 15.4701 43.1766 13.2199 43.0947 12.9788C43.0129 12.7378 40.5165 6.02737 40.3528 5.70592C40.1891 5.38446 39.4113 6.22828 39.4113 6.22828V7.15247C39.9607 7.91437 40.4662 8.70586 40.9256 9.5232ZM42.7263 9.76429C42.9718 10.4072 45.3457 16.5952 45.714 17.198C45.673 16.9855 45.673 16.7675 45.714 16.555C45.714 16.0327 43.6677 11.4921 43.3812 10.7287C43.0947 9.9652 42.8492 9.32229 42.6446 8.92047C42.44 8.51865 40.9255 5.26392 40.8846 5.14337C40.8437 5.02282 40.8846 5.50501 40.8846 5.50501C40.8846 5.50501 42.4807 9.16156 42.7263 9.76429Z" fill="#AC5A00"/>
</g>
<path d="M42.6038 22.7831C42.8597 22.3951 43.092 21.9926 43.2994 21.5776C43.4603 21.2667 43.597 20.9443 43.7086 20.6133C43.9695 19.9988 44.1884 19.3679 44.3635 18.7247V17.8407C44.3833 17.4793 44.3833 17.1172 44.3635 16.7558C44.5098 15.4141 44.4408 14.0583 44.1589 12.7376V13.1796C44.5508 14.6336 44.6481 16.149 44.4454 17.6398C44.4454 18.0014 44.4454 18.4033 44.4454 18.8051L44.1997 19.8498V20.5329C44.1997 20.5329 43.8724 21.4169 43.8315 21.5375C43.5482 22.2598 43.2061 22.9586 42.8083 23.6269L42.6038 22.7831Z" fill="#373531"/>
<path d="M41.1293 27.5246L34.1311 8.88016L37.0777 6.22815L43.5848 25.2744L41.1293 27.5246Z" fill="#5A5650"/>
<path d="M41.0887 27.605L13.7916 22.5823L13.0549 20.6536L40.2702 25.1941L41.0887 27.605Z" fill="#4F4C47"/>
<path d="M10.2314 7.03184L15.4699 21.4572L17.2297 19.5686L12.4005 5.5451L10.2314 7.03184Z" fill="#282725"/>
<path d="M37.6106 24.953L15.5928 21.2964L17.2298 19.5686L38.7974 22.7028L37.6106 24.953Z" fill="#383633"/>
<path d="M35.0329 11.2911L7.98126 6.87106L7.12183 4.94232L34.2553 8.92034L35.0329 11.2911Z" fill="#4F4C47"/>
<path d="M34.1325 8.88017L7.12183 4.94233L10.1094 2.20996L37.0791 6.22816L34.1325 8.88017Z" fill="#CECECE"/>
<path d="M34.1313 8.88023L41.1296 27.5247L38.4285 27.0425L31.1438 8.55878L34.1313 8.88023Z" fill="#4F4C47"/>
<path d="M7.12183 4.94232L13.7926 22.5822L16.2072 23.0242L10.0684 5.50487L7.12183 4.94232Z" fill="#4F4C47"/>
<path d="M18.9481 6.34875L18.0886 6.9113L20.6669 7.27293L20.7897 7.75512L21.8947 7.15239H22.2221L24.2683 5.74602L24.2274 5.06293L18.9481 6.34875Z" fill="#282725"/>
<path d="M20.6669 4.58081L18.0886 6.95155L20.6669 7.273L24.2274 5.06299L20.6669 4.58081Z" fill="#E0E0E0"/>
<path opacity="0.35" d="M18.9897 6.06754L22.0182 6.42918L24.2282 5.06299L20.6677 4.58081L18.9897 6.06754Z" fill="#DDDCDB"/>
<path opacity="0.18" d="M24.2276 5.06287L22.918 5.54505C22.2632 5.82632 18.8254 6.75051 18.2524 6.83088L20.8308 7.19252L24.3912 4.94232L24.2276 5.06287Z" fill="#9D9C9E"/>
<path d="M20.7897 7.75506L20.6669 7.27287L18.0886 6.95142L18.2523 7.35324L20.7897 7.75506Z" fill="#42403C"/>
<path d="M15.9201 27.3639L0.941462 32.909L0.0820312 27.7657L13.9966 22.6224L16.4931 23.0644L15.9201 27.3639Z" fill="#CECECE"/>
<g style="mix-blend-mode:multiply">
<path d="M12.5636 24.8324L9.73975 24.1895L13.996 22.6224L16.6561 23.0644L12.5636 24.8324Z" fill="#383531"/>
</g>
<path d="M16.0839 30.1767L3.11055 33.3913L1.43262 28.4087L16.534 22.944L16.0839 30.1767Z" fill="#4F4C47"/>
<path d="M35.2363 28.7703L25.2096 33.8734L5.40161 31.6232C5.40161 31.6232 15.9193 27.605 16.3286 27.4041C16.7378 27.2032 16.3286 23.0242 16.3286 23.0242L39.0013 27.0424L35.2363 28.7703Z" fill="#331500"/>
<path d="M16.3299 27.3638L30.2036 30.1766L38.6342 26.962L16.248 22.984L16.3299 27.3638Z" fill="#383633"/>
<path d="M25.7424 18.6846V16.1129C24.4009 15.7842 23.0305 15.5823 21.6498 15.5102L21.0359 18.0015C20.9542 18.3262 20.7861 18.6238 20.5488 18.8639C20.3115 19.1039 20.0134 19.2778 19.6853 19.3677C18.4845 19.6748 17.4088 20.3367 16.6036 21.2638C15.7985 22.1909 15.3028 23.3384 15.1836 24.5511C15.1836 26.962 15.1836 27.8862 15.1836 30.4981C15.1165 31.3405 15.3217 32.1822 15.7698 32.9036C16.218 33.625 16.8864 34.1893 17.68 34.5163C19.5922 35.087 21.575 35.3979 23.5732 35.4404C24.4102 35.3583 25.201 35.0249 25.838 34.4856C26.4751 33.9464 26.9276 33.2275 27.1337 32.4268C27.8704 29.9757 28.2797 29.1319 28.9754 26.7611C29.2406 25.5787 29.1319 24.345 28.6639 23.2249C28.1959 22.1048 27.3907 21.1516 26.3561 20.4928C26.0961 20.2745 25.9017 19.9909 25.7936 19.6723C25.6854 19.3538 25.6678 19.0123 25.7424 18.6846Z" fill="#82E4FE"/>
<path opacity="0.86" d="M21.0353 33.8332C20.1073 33.681 19.1912 33.4662 18.2934 33.1903C17.7939 32.9625 17.3771 32.5903 17.0991 32.1235C16.8212 31.6567 16.6953 31.1176 16.7382 30.5785C16.7382 29.1721 16.7382 28.2479 16.7382 27.3639C16.7382 26.4799 16.7382 25.7165 16.7382 24.5914C16.8398 23.6499 17.231 22.7611 17.8597 22.0433C18.4885 21.3255 19.3248 20.8127 20.2577 20.5732C20.8126 20.4259 21.3174 20.136 21.7202 19.7334C22.123 19.3309 22.4094 18.8301 22.5495 18.2828L22.9179 16.8362H23.6955H24.4731V18.323C24.432 18.8906 24.5472 19.4586 24.8063 19.9676C25.0655 20.4766 25.4592 20.9078 25.9464 21.2161C26.7423 21.7338 27.3622 22.4734 27.7269 23.3398C28.0915 24.2061 28.1841 25.1597 27.9926 26.0781C27.6652 27.163 27.4196 27.8863 27.1331 28.6899C26.8466 29.4936 26.5602 30.4177 26.1919 31.7437C26.0523 32.2731 25.7562 32.7501 25.3411 33.1148C24.9261 33.4794 24.4105 33.7154 23.8591 33.793C22.926 33.7944 21.9947 33.7137 21.0763 33.5519L21.0353 33.8332Z" fill="#E938F2"/>
<g style="mix-blend-mode:multiply" opacity="0.33">
<path d="M20.2992 27.5648C20.1157 27.5405 19.9296 27.5848 19.7779 27.689C19.6262 27.7933 19.5201 27.9498 19.4806 28.1274C19.4481 28.3085 19.4901 28.495 19.5975 28.6457C19.705 28.7964 19.8691 28.899 20.0536 28.931C20.2382 28.963 20.428 28.9217 20.5814 28.8162C20.7349 28.7107 20.8396 28.5496 20.8722 28.3685C20.897 28.1883 20.8517 28.0056 20.7456 27.8567C20.6394 27.7078 20.4801 27.6036 20.2992 27.5648ZM22.2635 30.3776C22.0321 30.3525 21.7995 30.4126 21.6106 30.5462C21.4216 30.6798 21.2896 30.8774 21.2404 31.1008C21.2048 31.3296 21.262 31.563 21.3998 31.7508C21.5375 31.9387 21.7447 32.066 21.977 32.1054C22.09 32.1224 22.2056 32.1171 22.3165 32.0898C22.4274 32.0625 22.5315 32.0137 22.623 31.9464C22.7144 31.879 22.7913 31.7944 22.849 31.6975C22.9068 31.6006 22.9444 31.4934 22.9594 31.3821C22.9962 31.1591 22.9444 30.9307 22.8151 30.7439C22.6857 30.5571 22.4883 30.426 22.2635 30.3776ZM21.6088 23.8681C21.3758 23.8331 21.1379 23.8893 20.9466 24.0246C20.7553 24.1598 20.6259 24.3633 20.5857 24.5914C20.5621 24.703 20.5629 24.8183 20.5882 24.9296C20.6135 25.0409 20.6626 25.1456 20.7323 25.2368C20.802 25.328 20.8906 25.4036 20.9924 25.4586C21.0941 25.5136 21.2066 25.5467 21.3223 25.5557C21.4352 25.5742 21.5506 25.5707 21.662 25.5453C21.7735 25.52 21.8789 25.4733 21.972 25.408C22.0651 25.3427 22.1443 25.2601 22.2048 25.1648C22.2654 25.0694 22.3062 24.9634 22.325 24.8525C22.3438 24.7417 22.3403 24.6284 22.3145 24.5189C22.2887 24.4095 22.2411 24.3061 22.1746 24.2147C22.1081 24.1233 22.0239 24.0456 21.9268 23.9861C21.8297 23.9267 21.7217 23.8866 21.6088 23.8681ZM19.2351 30.8999C19.1705 30.8885 19.1043 30.8898 19.0403 30.9039C18.9762 30.918 18.9156 30.9446 18.8622 30.982C18.8087 31.0195 18.7636 31.0671 18.7293 31.122C18.6949 31.1769 18.672 31.238 18.6621 31.3017C18.6504 31.3652 18.652 31.4302 18.6663 31.4931C18.6807 31.556 18.7076 31.6154 18.7458 31.6679C18.7839 31.7203 18.8325 31.7647 18.8884 31.7985C18.9443 31.8322 19.0066 31.8546 19.0715 31.8643C19.1361 31.8758 19.2023 31.8744 19.2663 31.8603C19.3304 31.8462 19.391 31.8196 19.4444 31.7822C19.4978 31.7447 19.5429 31.6971 19.5773 31.6422C19.6117 31.5873 19.6344 31.5262 19.6442 31.4625C19.6628 31.3986 19.6665 31.3314 19.655 31.266C19.6435 31.2005 19.6171 31.1385 19.5778 31.0844C19.5385 31.0304 19.4872 30.9857 19.4279 30.9538C19.3686 30.9218 19.3027 30.9034 19.2351 30.8999ZM23.7368 28.1676C23.6722 28.1561 23.606 28.1574 23.5419 28.1715C23.4779 28.1856 23.4175 28.2122 23.3641 28.2497C23.3107 28.2871 23.2653 28.3347 23.231 28.3896C23.1966 28.4445 23.1739 28.5057 23.164 28.5694C23.1523 28.6328 23.1536 28.6979 23.168 28.7608C23.1824 28.8236 23.2095 28.8831 23.2477 28.9355C23.2858 28.9879 23.3341 29.0323 23.3901 29.0661C23.446 29.0998 23.5083 29.1222 23.5732 29.1319C23.6354 29.1434 23.6994 29.1418 23.761 29.1274C23.8226 29.1129 23.8806 29.0858 23.9309 29.0479C23.9811 29.0099 24.0224 28.962 24.0525 28.9073C24.0826 28.8525 24.1005 28.7921 24.1052 28.7301C24.1235 28.6692 24.1281 28.6052 24.1189 28.5424C24.1098 28.4796 24.0869 28.4195 24.052 28.3661C24.0171 28.3128 23.971 28.2674 23.9166 28.2331C23.8622 28.1989 23.8007 28.1765 23.7368 28.1676ZM18.3756 23.0644C18.2094 23.0504 18.0437 23.0954 17.9085 23.1912C17.7733 23.2871 17.6776 23.4275 17.6389 23.5868C17.6228 23.755 17.6674 23.9235 17.7646 24.063C17.8618 24.2024 18.0054 24.3041 18.171 24.3503C18.2571 24.3615 18.3447 24.3558 18.4285 24.3335C18.5124 24.3112 18.5908 24.2728 18.6593 24.2204C18.7279 24.1681 18.7853 24.1029 18.8279 24.0286C18.8706 23.9543 18.8975 23.8724 18.9076 23.7877C18.9315 23.623 18.8894 23.4556 18.7902 23.3207C18.691 23.1858 18.5423 23.094 18.3756 23.0644ZM21.0358 28.8506C20.9921 28.8378 20.9458 28.8354 20.9009 28.8437C20.8561 28.8519 20.8138 28.8706 20.7778 28.8981C20.7417 28.9256 20.713 28.9612 20.6939 29.0019C20.6747 29.0425 20.6655 29.0871 20.6674 29.1319C20.6553 29.1771 20.6535 29.2242 20.6619 29.2702C20.6702 29.3161 20.6886 29.3598 20.7158 29.398C20.7431 29.4362 20.7786 29.4682 20.8197 29.4916C20.8609 29.5151 20.9065 29.5294 20.9539 29.5337C21.0442 29.5378 21.1334 29.5124 21.2074 29.4615C21.2815 29.4106 21.3363 29.3371 21.3633 29.2525C21.3652 29.1585 21.3334 29.0668 21.2736 28.9934C21.2138 28.9199 21.1296 28.8694 21.0358 28.8506ZM25.5785 24.0288C25.5943 23.9577 25.588 23.8836 25.5602 23.8161C25.5324 23.7487 25.4845 23.691 25.4228 23.6507C25.3612 23.6104 25.2884 23.5893 25.2143 23.5901C25.1402 23.5909 25.0682 23.6137 25.0074 23.6554C24.9467 23.6972 24.9002 23.7559 24.8741 23.824C24.8479 23.8921 24.8433 23.9663 24.8608 24.037C24.8783 24.1077 24.9169 24.1716 24.972 24.2203C25.027 24.269 25.0959 24.3003 25.1693 24.3101C25.261 24.3223 25.354 24.3001 25.4298 24.248C25.5057 24.1959 25.5587 24.1176 25.5785 24.0288ZM26.5606 28.047C26.4704 28.0429 26.3814 28.0683 26.3073 28.1192C26.2333 28.1701 26.1785 28.2436 26.1515 28.3283C26.1394 28.3734 26.1374 28.4206 26.1457 28.4666C26.1541 28.5125 26.1727 28.5561 26.1999 28.5944C26.2272 28.6326 26.2625 28.6645 26.3036 28.688C26.3447 28.7114 26.3906 28.7258 26.438 28.7301C26.484 28.742 26.5321 28.7439 26.5789 28.7357C26.6257 28.7274 26.6701 28.7093 26.709 28.6826C26.7479 28.6558 26.7805 28.621 26.8044 28.5806C26.8283 28.5403 26.8428 28.4953 26.8471 28.4488C26.8595 28.3588 26.837 28.2674 26.7839 28.1929C26.7309 28.1185 26.6511 28.0664 26.5606 28.047ZM24.6373 32.0652C24.559 32.0478 24.4777 32.0467 24.399 32.062C24.3202 32.0773 24.2457 32.1088 24.1801 32.1542C24.1145 32.1997 24.0594 32.2582 24.0183 32.3259C23.9772 32.3936 23.9511 32.4691 23.9416 32.5474C23.9176 32.7015 23.9552 32.8588 24.0468 32.9861C24.1383 33.1135 24.2767 33.2011 24.4327 33.2305C24.5134 33.248 24.597 33.2493 24.6782 33.2344C24.7595 33.2194 24.8367 33.1885 24.9055 33.1434C24.9743 33.0984 25.0331 33.0402 25.0784 32.9723C25.1237 32.9044 25.1547 32.8282 25.1693 32.7483C25.1461 32.6181 25.0824 32.4981 24.9872 32.4046C24.892 32.3111 24.7699 32.2487 24.6373 32.2259V32.0652ZM26.397 27.4443C26.5756 27.4676 26.7563 27.422 26.9013 27.3171C27.0464 27.2122 27.1444 27.0561 27.1746 26.8817C27.1994 26.7016 27.1544 26.5189 27.0482 26.37C26.942 26.2211 26.7825 26.1168 26.6016 26.0781C26.423 26.0548 26.2423 26.1004 26.0973 26.2053C25.9522 26.3102 25.8542 26.4663 25.824 26.6406C25.7777 26.7402 25.7565 26.8492 25.7621 26.9585C25.7676 27.0677 25.7998 27.1741 25.856 27.2686C25.9121 27.3632 25.9906 27.443 26.0848 27.5016C26.1789 27.5601 26.286 27.5956 26.397 27.605V27.4443ZM23.5322 26.1183C23.6194 26.1324 23.7091 26.121 23.7897 26.0855C23.8704 26.0499 23.9385 25.9919 23.9858 25.9185C24.0331 25.8452 24.0573 25.7598 24.0555 25.673C24.0537 25.5863 24.0259 25.5019 23.9756 25.4306C23.9252 25.3592 23.8546 25.304 23.7725 25.2717C23.6904 25.2395 23.6005 25.2317 23.514 25.2494C23.4274 25.267 23.3482 25.3093 23.2859 25.3709C23.2237 25.4325 23.1813 25.5108 23.164 25.5959C23.1522 25.654 23.1525 25.7139 23.1648 25.7719C23.177 25.83 23.2011 25.885 23.2354 25.9337C23.2698 25.9825 23.3136 26.0239 23.3646 26.0556C23.4156 26.0873 23.4726 26.1086 23.5322 26.1183ZM22.7136 20.0106C22.8039 20.0147 22.8931 19.9893 22.9672 19.9384C23.0412 19.8875 23.096 19.814 23.123 19.7293C23.1351 19.6842 23.1372 19.637 23.1288 19.5911C23.1204 19.5451 23.1018 19.5015 23.0746 19.4633C23.0473 19.425 23.012 19.3931 22.9709 19.3696C22.9298 19.3462 22.8839 19.3318 22.8365 19.3275C22.781 19.3086 22.7216 19.3029 22.6634 19.3111C22.6052 19.3192 22.55 19.3409 22.5021 19.3743C22.4542 19.4077 22.4151 19.4519 22.3882 19.5032C22.3612 19.5545 22.3472 19.6114 22.3472 19.6691C22.3472 19.7268 22.3612 19.7836 22.3882 19.8349C22.4151 19.8862 22.4542 19.9304 22.5021 19.9638C22.55 19.9973 22.6052 20.019 22.6634 20.0271C22.7216 20.0352 22.781 20.0296 22.8365 20.0106H22.7136ZM20.7903 22.1001C20.8021 22.0443 20.8017 21.9866 20.789 21.931C20.7764 21.8753 20.7517 21.823 20.7168 21.7774C20.682 21.7318 20.6378 21.6939 20.5869 21.6665C20.5361 21.639 20.4797 21.6224 20.4218 21.6179C20.3024 21.6179 20.188 21.6645 20.1036 21.7474C20.0192 21.8302 19.9717 21.9427 19.9717 22.0599C19.9717 22.1771 20.0192 22.2895 20.1036 22.3724C20.188 22.4553 20.3024 22.5019 20.4218 22.5019C20.5147 22.4743 20.5982 22.4222 20.6631 22.3514C20.7281 22.2806 20.772 22.1937 20.7903 22.1001ZM18.0483 26.1183C17.9599 26.0944 17.8661 26.0977 17.7796 26.1276C17.6931 26.1576 17.6177 26.2128 17.564 26.2858C17.5103 26.3588 17.4808 26.4462 17.4791 26.5363C17.4774 26.6263 17.5036 26.7147 17.5545 26.7897C17.6054 26.8646 17.6785 26.9225 17.7638 26.9556C17.8492 26.9887 17.9428 26.9954 18.0321 26.9748C18.1214 26.9542 18.202 26.9074 18.2634 26.8404C18.3248 26.7735 18.364 26.6898 18.3756 26.6005C18.3813 26.5391 18.3739 26.4773 18.3538 26.4189C18.3338 26.3606 18.3016 26.307 18.2592 26.2616C18.2168 26.2162 18.1653 26.18 18.1078 26.1553C18.0503 26.1306 17.9882 26.118 17.9255 26.1183H18.0483Z" fill="#A53C9B"/>
</g>
<g style="mix-blend-mode:multiply" opacity="0.34">
<path d="M22.017 35.0788C22.017 35.0788 21.7305 34.8377 22.017 34.7975C22.4522 34.7536 22.8676 34.5964 23.2202 34.3421C23.5728 34.0878 23.8496 33.7456 24.0223 33.3509C24.5134 31.9044 25.291 29.3327 25.9049 26.5602C26.2719 25.6477 26.3821 24.6551 26.2237 23.6865C26.0652 22.7179 25.6442 21.809 25.0047 21.0553C24.5482 20.292 24.3612 19.4021 24.4726 18.5238C24.4726 17.68 24.8408 15.9521 24.8408 15.9521H25.7413C25.7413 15.9521 25.3321 17.6398 25.2502 18.4836C25.1684 19.3274 25.9459 20.2918 27.01 21.0151C27.8929 21.7505 28.5095 22.7469 28.7677 23.8551C29.0259 24.9632 28.9117 26.1237 28.4423 27.1629C27.6238 29.7346 27.2144 30.8998 26.3141 33.3108C26.0471 33.823 25.6435 34.2544 25.1461 34.5587C24.6487 34.863 24.0762 35.0289 23.4902 35.0386L22.017 35.0788Z" fill="#0081B2"/>
</g>
<path d="M25.8245 17.5996V16.1129C24.483 15.7842 23.1126 15.5823 21.732 15.5102L21.3638 16.9567C22.0388 17.2025 22.7385 17.3776 23.451 17.4791C24.2316 17.636 25.0316 17.6766 25.8245 17.5996Z" fill="#3F92BC"/>
<path d="M27.8288 15.0682C27.8288 14.5459 26.3556 13.8226 24.3502 13.5011C22.3449 13.1797 20.5851 13.5011 20.5033 13.9431C20.4625 14.4245 20.4625 14.9083 20.5033 15.3897C20.5033 15.9121 21.8539 16.555 23.6956 16.8362C24.8716 17.1742 26.1358 17.0443 27.2151 16.4746C27.4805 16.0337 27.6867 15.561 27.8288 15.0682Z" fill="#6DD1E8"/>
<path d="M24.0232 15.3494C25.9058 15.6709 27.4612 15.3494 27.543 15.028C27.6249 14.7065 26.5199 14.0234 25.0057 13.702H24.3098C22.4681 13.4207 20.8721 13.702 20.8312 14.0636C20.7903 14.4253 22.1816 15.0682 24.0232 15.3494Z" fill="#9BEEF9"/>
<path opacity="0.6" d="M23.9827 15.5504L22.5501 15.2691H22.3046V15.9924C22.2866 16.0229 22.2771 16.0576 22.2771 16.0928C22.2771 16.1281 22.2866 16.1628 22.3046 16.1933L23.6961 16.4746H25.0465L25.292 15.7915V15.5504C24.8561 15.5815 24.4186 15.5815 23.9827 15.5504Z" fill="#E938F2"/>
<path d="M26.5608 14.7066C26.5608 14.9879 25.415 15.0683 24.1053 14.7066C22.7957 14.345 21.8136 14.1441 21.8545 13.8628C21.8954 13.5815 23.0003 13.5012 24.269 13.8628C25.5376 14.2245 26.6017 14.4254 26.5608 14.7066Z" fill="#006D98"/>
<path d="M27.2975 12.8582C27.2975 12.5368 26.2742 11.8135 24.6372 11.5322C23.0002 11.2509 21.7314 11.5322 21.7314 11.9742C21.7314 12.4162 22.0589 13.7824 22.0589 13.9431C22.0589 14.1039 22.9593 14.5057 24.1461 14.7066C25.333 14.9075 26.3151 14.7066 26.356 14.7066C26.3969 14.7066 27.2156 13.0591 27.2975 12.8582Z" fill="#C06A00"/>
<path d="M24.1463 12.9787C24.1463 12.9787 23.8597 12.9787 23.7778 12.9787C23.8996 13.0006 24.0245 13.0006 24.1463 12.9787C24.5146 13.0591 24.8829 13.6618 24.1463 12.9787Z" fill="#914C00"/>
<path d="M22.9586 12.8985C22.9105 12.9313 22.8532 12.949 22.7947 12.949C22.7362 12.949 22.6791 12.9313 22.6311 12.8985C22.6311 12.8985 22.6311 12.8985 22.6311 12.8985H22.8766H22.9586Z" fill="#914C00"/>
<path d="M25.4561 14.4655C25.4561 14.1842 24.9649 14.0637 24.8831 14.4655C24.8012 14.8673 24.8831 14.4655 24.8831 14.6664H25.0876L25.4561 14.4655Z" fill="#914C00"/>
<path d="M25.906 14.0637C25.906 14.0637 26.4381 13.8226 26.2744 13.6217C26.1107 13.4207 25.906 14.0637 25.906 14.0637Z" fill="#914C00"/>
<path d="M24.1866 14.0637C24.1688 14.1431 24.1688 14.2254 24.1866 14.3048C24.1455 14.4081 24.1455 14.5229 24.1866 14.6262C24.1866 14.6262 24.1866 14.6262 24.4321 14.6262C24.6777 14.6262 24.4321 14.6262 24.4321 14.3048C24.4538 14.261 24.4651 14.2129 24.4651 14.1641C24.4651 14.1154 24.4538 14.0673 24.4321 14.0235L24.1866 14.0637Z" fill="#914C00"/>
<path d="M23.0411 14.0636C23.0954 14.0999 23.1595 14.1193 23.2252 14.1193C23.2909 14.1193 23.3552 14.0999 23.4095 14.0636C23.4355 14.0067 23.4488 13.9451 23.4488 13.8828C23.4488 13.8204 23.4355 13.7588 23.4095 13.702C23.4095 13.702 23.4095 13.3001 23.0821 13.3805C22.7547 13.4609 23.0002 13.702 23.0411 14.0636Z" fill="#914C00"/>
<path d="M22.0998 13.5815C22.118 13.5438 22.1276 13.5027 22.1276 13.461C22.1276 13.4193 22.118 13.3781 22.0998 13.3404C22.1241 13.2482 22.1241 13.1514 22.0998 13.0591C22.0998 13.0591 22.0999 13.0591 21.8953 13.0591C21.9094 13.2493 21.9805 13.4311 22.0998 13.5815Z" fill="#914C00"/>
<path d="M22.7949 14.0637C22.7949 14.0637 22.7949 13.5413 22.5084 13.8226C22.2219 14.1039 22.5084 14.0637 22.5084 14.1441H22.713C22.7476 14.1256 22.7761 14.0977 22.7949 14.0637Z" fill="#914C00"/>
<g style="mix-blend-mode:multiply" opacity="0.53">
<path d="M24.2683 33.7528C22.1326 33.7137 20.0124 33.3893 17.9659 32.7884C17.3633 32.5644 16.823 32.2037 16.3892 31.7359C15.9554 31.2681 15.6403 30.7063 15.4695 30.0963V30.4981C15.4024 31.3405 15.6075 32.1822 16.0557 32.9036C16.5039 33.625 17.1723 34.1893 17.9659 34.5163C19.8781 35.087 21.8609 35.3979 23.8591 35.4405C24.6961 35.3583 25.4868 35.0249 26.1239 34.4856C26.761 33.9464 27.2135 33.2275 27.4196 32.4268V32.0652C27.0595 32.5631 26.5885 32.9739 26.0425 33.2663C25.4965 33.5587 24.8896 33.7251 24.2683 33.7528Z" fill="#7DAAC6"/>
</g>
<path opacity="0.34" d="M24.882 22.3009C25.1275 23.0644 24.3909 23.5466 23.1222 23.3457C21.8535 23.1448 21.3214 22.4617 21.7716 21.8188C21.939 21.5246 22.1943 21.288 22.503 21.1407C22.8117 20.9935 23.1589 20.9427 23.4979 20.9953C23.8369 21.0478 24.1514 21.2012 24.3989 21.4346C24.6463 21.6681 24.815 21.9705 24.882 22.3009Z" fill="white"/>
<path d="M0.69573 31.9447L25.5783 37.4898V31.8241L24.7598 31.6634L24.105 31.5428L22.427 31.141L21.4448 30.9401L2.49644 26.8416L0 27.7256L0.69573 31.9447Z" fill="#CECECE"/>
<path d="M40.8031 31.6232L25.3743 37.4897V31.8241L38.8796 26.8817L41.2942 27.4041L40.8031 31.6232Z" fill="#CECECE"/>
<g style="mix-blend-mode:multiply">
<path d="M33.272 28.8908L38.8787 26.8817L41.2933 27.4041L41.1705 28.4086L36.6278 29.6543L33.272 28.8908Z" fill="#383531"/>
</g>
<path d="M2.70049 42.6732L24.1044 47.7763L38.3873 43.5572L39.2468 32.5473L25.2912 36.0431L2.16846 33.0295L2.41401 35.5208L2.70049 42.6732Z" fill="#BA6A27"/>
<g style="mix-blend-mode:multiply" opacity="0.21">
<path d="M4.05144 43.4366C4.98221 43.8179 6.00487 43.9295 6.99819 43.7581C7.44837 43.5572 7.73473 43.7581 8.67601 43.7581C9.239 43.6254 9.81607 43.558 10.3951 43.5572L13.096 43.8385H14.6102C14.9376 43.8385 18.1707 44.2805 18.7028 44.5216C19.3672 44.7155 20.0009 44.9995 20.5854 45.3654C20.9537 45.6467 19.3985 45.3654 18.7437 45.1645C17.9718 44.8554 17.1785 44.6002 16.37 44.401C15.6977 44.3555 15.0283 44.275 14.3647 44.1599C13.8204 44.1062 13.2721 44.1062 12.7278 44.1599C12.2776 44.1599 12.073 44.1599 11.7047 44.1599C11.4948 44.2462 11.3114 44.3847 11.1726 44.5617C11.3708 44.8698 11.6365 45.1306 11.9502 45.3252C12.7525 45.6854 13.5885 45.968 14.4466 46.169L18.9483 46.8521H22.3452H24.1869C24.1869 46.8521 25.0463 47.5352 24.9235 47.3745C24.8007 47.2138 24.3914 45.6868 24.3914 45.6868C23.8423 45.3723 23.2675 45.1035 22.6726 44.8832C21.3574 44.3359 19.985 43.9316 18.5801 43.6777L13.9555 43.0348C11.9502 42.7937 8.47156 42.3116 7.5712 42.1106C6.53787 41.7924 5.48536 41.5375 4.41988 41.3472C4.1334 41.3472 4.41988 41.7088 4.41988 41.7088C4.41988 41.7088 6.71163 42.3116 7.93939 42.4723C9.16715 42.633 12.9732 43.2357 14.3237 43.3563C15.8644 43.4711 17.3956 43.6859 18.9073 43.9992C20.2921 44.2979 21.6585 44.6735 22.9999 45.1243C23.5892 45.3604 24.1517 45.6567 24.6779 46.0083C24.6779 46.2092 23.6139 46.0083 22.9591 46.0083C21.6204 45.4824 20.2544 45.0264 18.8666 44.6421C17.3999 44.3015 15.9084 44.0731 14.4057 43.959C12.6277 43.726 10.8378 43.5918 9.04445 43.5572C8.38965 43.5572 6.95736 43.5572 6.58904 43.5572C6.44411 43.6915 6.26475 43.7848 6.07023 43.8272C5.8757 43.8697 5.67318 43.8597 5.48397 43.7983C4.99287 43.7983 4.05147 42.9545 4.33795 42.8741C4.62442 42.7937 6.30242 42.8741 6.95722 42.8741C7.66564 42.823 8.377 42.823 9.08542 42.8741C8.43061 42.8741 7.24379 42.4321 6.79361 42.3919H5.44301C4.98184 42.323 4.5126 42.323 4.05144 42.3919C3.56034 42.3919 3.11028 42.3919 3.1512 42.6732C3.19213 42.9545 4.05144 43.4366 4.05144 43.4366ZM23.2454 42.6732C23.5415 42.6048 23.8498 42.6048 24.1459 42.6732C24.7188 42.6732 25.2098 42.6732 25.2917 42.3517C25.3735 42.0303 25.5373 41.5481 25.0871 41.1865C24.6483 40.8066 24.1093 40.5559 23.5319 40.4632C23.1227 40.4632 22.1814 40.6641 21.7722 40.6641L20.5035 40.9052C17.7774 41.0602 15.0445 41.0602 12.3184 40.9052C10.3949 40.9052 4.13335 39.8605 3.60132 39.8203C3.06929 39.7801 3.60147 39.3783 4.01072 39.3783C4.41998 39.3783 5.72947 39.6997 6.71168 39.7399C7.69389 39.7801 9.74014 40.2623 11.0497 40.3828C12.8953 40.6378 14.753 40.7988 16.6155 40.865C17.8024 40.865 17.9662 40.865 18.3346 40.865C18.7029 40.865 17.9663 40.5034 16.8204 40.5435H14.9377L10.8452 40.2221C9.94482 40.2221 7.85753 39.8605 7.1618 39.7801L4.99289 39.4184C4.37901 39.4184 3.4785 39.4185 3.56036 38.9765C3.64221 38.5345 3.92884 38.9765 4.74735 38.9765L7.12083 39.1774C8.03793 39.412 8.96704 39.5998 9.90397 39.7399C10.968 39.7399 14.3648 40.0614 14.7331 39.981C15.1015 39.9006 13.3416 39.539 13.3416 39.539H10.5177C9.61735 39.539 8.79877 39.539 8.14397 39.539C7.31642 39.4451 6.49622 39.2974 5.68855 39.097C5.22673 39.0042 4.77456 38.8697 4.33795 38.6952C4.05147 38.6952 3.8469 38.4943 3.88783 38.2934C3.92875 38.0924 4.66542 37.771 4.66542 37.771L3.02831 37.9719C2.90129 38.6616 2.8329 39.3605 2.82373 40.0614L3.84686 40.423C4.66537 40.423 10.2721 41.4275 12.2775 41.5079C14.2828 41.5883 19.0711 41.7892 19.7259 41.7088L22.2223 41.3472C22.7539 41.3749 23.2868 41.3749 23.8184 41.3472C24.1049 41.3472 24.1458 41.6686 23.8184 41.7892C23.3864 41.8769 22.9407 41.8769 22.5088 41.7892C21.813 41.7892 21.6495 41.7892 20.6264 41.9901C19.9175 42.0278 19.207 42.0278 18.4982 41.9901H11.0497C13.1026 42.198 15.1658 42.2919 17.2295 42.2714C17.6388 42.2714 19.2348 42.2714 21.322 42.0705H22.7543C23.1636 42.0705 23.4091 42.0705 23.7365 42.0705C24.0639 42.0705 24.1048 42.4723 23.7365 42.5125C23.357 42.5725 22.9702 42.5725 22.5907 42.5125C22.3042 42.5125 21.7313 42.7134 21.1175 42.7536C20.5036 42.7937 16.4518 42.7536 15.8379 42.7536C17.5601 42.9826 19.2982 43.0767 21.0355 43.0348C21.4156 43.0876 21.8015 43.0876 22.1816 43.0348C22.5433 42.9354 22.8985 42.8147 23.2454 42.6732ZM23.7365 40.1417H25.169C25.169 40.1417 25.169 38.6952 24.4324 38.6148C23.6957 38.5345 13.5463 37.6504 13.1779 37.6504C12.8096 37.6504 8.5124 36.7263 8.5124 36.7263L5.2794 35.7619C5.2794 35.7619 4.33801 35.7619 4.91096 35.7619C5.48391 35.7619 10.8861 37.329 11.6228 37.4897C12.3594 37.6504 16.4928 38.0121 17.3931 38.0523L24.1459 38.655C24.1459 38.655 24.1459 38.9363 23.6548 38.8961L18.4162 38.5344L11.991 38.1728C11.4998 38.1728 5.68866 36.5655 5.03385 36.4048C6.01606 36.6459 11.3772 38.1728 12.1138 38.2934C13.5053 38.2934 18.0481 39.1372 18.8257 39.1372H24.064C24.064 39.1372 24.8824 39.3783 24.555 39.7801C24.2276 40.1819 19.9714 39.4184 19.4803 39.3783L13.3825 38.6148C11.1316 38.3737 5.19754 36.9272 4.50181 36.887C4.40872 36.9606 4.33776 37.0579 4.29698 37.1683C5.36104 37.4897 12.4821 38.6952 13.3416 38.8559C14.201 39.0166 18.1298 39.7801 19.1938 39.9006C20.2579 40.0212 22.9589 39.981 23.7365 40.1417ZM24.2278 38.2532C24.2278 38.2532 24.9235 38.2532 24.6779 38.2532C24.4324 38.2532 18.3345 37.3692 17.516 37.2084C16.6975 37.0477 15.5516 36.9674 14.242 36.8066C12.9324 36.6459 6.34327 35.7217 5.60662 35.7619C5.3098 35.8237 5.0032 35.8237 4.70638 35.7619C5.85229 36.0432 14.9785 37.0477 16.0835 37.1683C17.1885 37.2888 24.2278 38.1728 24.2278 38.1728V38.2532Z" fill="#AC5A00"/>
</g>
<path d="M24.0644 42.0304V42.2714L3.479 37.4094V37.1683L24.0644 42.0304Z" fill="url(#paint0_linear)"/>
<path d="M24.0644 41.7893V42.0304L3.479 37.2085V36.9272L24.0644 41.7893Z" fill="url(#paint1_linear)"/>
<path d="M2.49609 33.0295L3.02789 42.7133H5.48356L4.99247 33.3509L2.49609 33.0295Z" fill="url(#paint2_linear)"/>
<path d="M2.16931 33.0295V35.6815C2.15157 35.7609 2.15157 35.8432 2.16931 35.9226C2.2317 36.1051 2.2317 36.3026 2.16931 36.4851V36.887L2.61943 42.633H5.07485L4.58377 33.2706L2.16931 33.0295Z" fill="#838384"/>
<path d="M38.3885 42.6331L25.4152 47.5754L25.3743 36.204L39.207 32.7081L38.3885 42.6331Z" fill="#6C2B13"/>
<g style="mix-blend-mode:multiply" opacity="0.21">
<path d="M38.5112 39.0569C38.2248 39.0569 38.02 39.3784 37.8153 39.4587L37.1197 39.74C36.7629 39.8905 36.4317 40.0938 36.1375 40.3427C36.4704 40.2226 36.8126 40.1285 37.1606 40.0614C37.6113 39.8325 38.0762 39.6312 38.5522 39.4587C38.5522 39.4587 38.5522 40.4231 38.2657 40.5838C37.9792 40.7445 37.8972 40.5838 37.6108 40.5838C37.3243 40.5838 36.6697 40.5838 36.2604 40.5838C35.0649 41.072 33.9028 41.6357 32.7816 42.2715C32.0106 42.7078 31.2959 43.2339 30.6534 43.8385C30.0444 44.5937 29.4841 45.3855 28.9756 46.2093C28.73 46.5709 28.157 46.8924 28.1161 46.6915C28.0751 46.4906 28.4435 45.928 28.6891 45.486C29.1952 44.813 29.7712 44.1935 30.4079 43.6376C31.0888 43.0434 31.8294 42.5184 32.618 42.0705C33.3137 41.7089 35.892 40.1016 36.7105 39.74C37.529 39.3783 37.8973 38.7756 38.2247 38.5747C38.5521 38.3738 38.2248 38.2533 38.0202 38.2934C37.5348 38.5782 37.0938 38.9301 36.7105 39.3382C36.3013 39.74 33.8048 41.1062 32.8635 41.7491C31.9223 42.392 31.554 42.6331 30.6127 43.3162C29.8655 43.8513 29.2269 44.5192 28.73 45.2851C28.4867 45.6385 28.2809 46.0155 28.1161 46.4102C28.1161 46.4102 28.1161 46.8924 28.1161 47.0531C28.1161 47.2138 28.73 47.4549 28.73 47.4549H29.7941L31.6358 46.7317C31.6358 46.7317 34.214 45.2449 34.5414 44.9636C34.9551 44.5806 35.3009 44.1324 35.5645 43.6376C35.6197 43.359 35.6197 43.0725 35.5645 42.7938C35.4452 42.6594 35.2889 42.5617 35.1144 42.5125C34.8688 42.5125 34.7869 42.5125 34.5414 42.7135C33.9967 42.8957 33.4749 43.1384 32.9862 43.4367L32.004 44.0395C31.6119 44.3967 31.2681 44.8018 30.9809 45.2449C30.7353 45.6066 29.9988 46.1289 30.0807 45.8075C30.2439 45.3833 30.4791 44.9893 30.7763 44.6422C31.4101 44.0737 32.095 43.5627 32.8226 43.1153L34.3368 42.4724L35.6874 41.6687C36.0557 41.4678 36.1375 41.6687 36.6696 41.6687C36.9646 41.5921 37.2748 41.5921 37.5698 41.6687C37.8563 41.6687 38.2247 41.4678 38.4293 41.4276C38.6339 41.3874 38.4293 41.0258 38.4293 41.0258C38.4293 41.0258 38.7977 39.0167 38.5112 39.0569ZM28.3209 43.3162C28.4583 43.2043 28.6095 43.1097 28.771 43.0349C28.888 42.9649 28.9862 42.8685 29.0575 42.7536C28.8682 42.7188 28.6738 42.7188 28.4845 42.7536C28.3076 42.737 28.1294 42.737 27.9525 42.7536C27.7492 42.8689 27.5281 42.9504 27.2978 42.9947C27.2978 42.9947 27.0522 42.7536 27.2978 42.5527C27.5433 42.3518 27.584 42.5527 27.8296 42.3518H28.6481C28.985 42.3148 29.3153 42.2337 29.6303 42.1107L30.9399 41.6687C30.9399 41.6687 32.0041 40.9856 31.8404 41.1062L31.1038 41.3071L30.2033 41.6285C29.8612 41.7552 29.5033 41.8363 29.1392 41.8696L27.9525 42.1509C27.7103 42.2073 27.458 42.2073 27.2158 42.1509C27.2158 42.1509 26.8475 41.6285 27.2158 41.6687C27.5842 41.7089 27.625 41.6687 28.1161 41.3874H29.5486C31.1577 40.8282 32.7294 40.1706 34.2549 39.4185C35.3189 38.9363 37.8563 37.1282 38.3474 37.0478L38.7568 36.4852C38.7568 36.4852 37.9791 34.5967 37.8973 34.5565H36.9151C37.1352 34.6324 37.3423 34.7408 37.5291 34.878C37.5291 34.878 37.5291 35.1592 37.5291 35.3602C37.3713 35.5892 37.1779 35.7925 36.9561 35.9629C36.6225 36.2092 36.2662 36.4244 35.892 36.6058C35.5236 36.6058 35.1144 37.0478 34.6643 37.2085L31.8814 38.2934L31.3084 38.5345L31.6765 38.7354C32.8176 38.3699 33.9154 37.8849 34.9508 37.2889C35.4155 37.075 35.8664 36.8335 36.3011 36.5656L37.4881 35.8825C37.8564 35.6012 37.9381 35.2798 38.0609 35.5209C38.1837 35.762 37.7746 36.0433 37.4881 36.2442L36.465 37.0076C36.0967 37.2487 35.1554 37.6505 34.7052 37.8916C34.255 38.1327 32.8226 38.7354 31.7994 39.2578C31.5132 39.4437 31.1888 39.5652 30.8493 39.6139C30.5097 39.6625 30.1635 39.6369 29.8351 39.5391L29.2621 39.8204C29.3944 39.9678 29.5637 40.0786 29.7532 40.1418C30.2719 40.1127 30.7828 40.0042 31.2674 39.8204C32.4447 39.3978 33.5815 38.8734 34.6643 38.2533L36.6696 37.1282C37.2016 36.8871 37.7337 36.3245 38.0202 36.204C38.3066 36.0834 38.552 36.204 38.3474 36.5254C38.1428 36.8469 35.1552 38.4943 34.2549 39.0167C32.5569 39.8017 30.7899 40.4338 28.9756 40.9053C28.7171 40.8789 28.4565 40.8789 28.198 40.9053C27.8573 40.8856 27.5156 40.8856 27.1749 40.9053C26.8992 41.1803 26.7138 41.5302 26.6428 41.9098C26.5963 42.3065 26.6981 42.7064 26.9293 43.0349C26.9293 43.3162 27.3386 43.0349 27.666 43.0349C27.9934 43.0349 28.0343 43.0349 28.198 43.0349C28.229 43.1326 28.2702 43.2268 28.3209 43.3162ZM28.812 39.5391C29.344 39.2176 31.1447 38.2131 31.6358 37.8514C32.1269 37.4898 36.2603 35.1191 36.7105 34.6369C36.6584 34.5318 36.572 34.4469 36.465 34.3958C36.1785 34.3958 32.7408 36.9273 31.6358 37.6103C30.8537 38.1028 30.0324 38.5328 29.1802 38.8962C28.2137 39.7059 27.1878 40.4445 26.1108 41.1062C25.7834 40.8249 26.1108 40.4633 26.1108 40.4633C26.1108 40.4633 28.4844 39.0167 28.8937 38.856C29.3029 38.6953 31.5948 37.2889 32.004 37.0478C32.4133 36.8067 35.5236 34.3556 36.0965 33.9136C35.8101 34.2351 32.577 36.8067 32.2905 36.9273C32.0041 37.0478 29.3439 38.6149 29.1802 38.6149C29.0165 38.6149 26.6838 40.182 26.4382 40.3025C26.3866 40.3451 26.3215 40.3684 26.2542 40.3684C26.1868 40.3684 26.1214 40.3451 26.0698 40.3025L29.4667 38.3336C30.4682 37.8276 31.4385 37.2641 32.3725 36.646C32.6999 36.3245 35.7691 34.0341 36.0146 33.7529C36.2602 33.4716 35.7691 33.7529 35.7691 33.7529L34.4597 34.9985C34.4597 34.9985 31.7585 37.0076 31.5539 37.0478L25.8652 40.2624C25.5378 40.5034 25.8652 41.8295 25.8652 41.8295L26.6428 41.5482L28.812 39.5391ZM29.4667 36.6862C29.9987 36.3647 35.237 33.6323 35.7691 33.1501C35.6118 33.26 35.429 33.3292 35.2373 33.3511C34.8689 33.3511 31.1447 35.6012 30.3262 36.0031C29.5077 36.4049 29.0984 36.7263 28.73 37.0478C28.3617 37.3693 25.3743 39.4587 25.2515 39.5391C25.1287 39.6194 25.5378 39.5391 25.5378 39.5391L29.4667 36.6862Z" fill="#AC5A00"/>
</g>
<path style="mix-blend-mode:multiply" opacity="0.3" d="M38.8383 36.5255V36.7666L26.0696 41.7492V41.4679L38.8383 36.5255Z" fill="url(#paint3_linear)"/>
<path d="M36.7916 32.9894L39.0834 32.4269L38.2239 42.3518L36.2595 42.9144L36.7916 32.9894Z" fill="url(#paint4_linear)"/>
<path d="M37.1189 33.0698L39.4108 32.5073L38.5513 42.4322L36.5869 42.9948L37.1189 33.0698Z" fill="#4F4C47"/>
<path d="M27.6661 35.4807V39.4989V39.8605C27.6469 39.9051 27.6371 39.9529 27.6371 40.0012C27.6371 40.0495 27.6469 40.0973 27.6661 40.1418V40.3829V45.6066L25.3743 47.3746V36.0433L27.6661 35.4807Z" fill="#4F4C47"/>
<path d="M25.3742 36.0432V42.633V43.2759C25.4152 43.4068 25.4152 43.5468 25.3742 43.6777V44.4412V46.5306H22.3867V44.2805V43.8384C22.4689 43.6317 22.4689 43.4022 22.3867 43.1955V42.7937V36.0432H25.3742Z" fill="#838384"/>
<path d="M0.654804 33.0698L25.4146 38.8159L25.5783 33.2306L0 27.7256L0.654804 33.0698Z" fill="#9D9C9E"/>
<path d="M1.5547 45.044L25.5778 51.9955V46.5307L2.49598 40.2222L1.22729 40.8249L1.5547 45.044Z" fill="#DDDCDB"/>
<path d="M1.5547 45.5261L25.455 52.9999L25.5778 47.5753L1.22729 40.8248L1.5547 45.5261Z" fill="#9D9C9E"/>
<path d="M40.8031 33.0296L25.3743 38.8961V33.2305L41.2942 27.4041L40.8031 33.0296Z" fill="#5A5650"/>
<path d="M40.0255 43.9189L25.3743 51.9954V46.4905L38.7159 40.0212L38.7568 39.6998L40.5166 40.182L40.0255 43.9189Z" fill="url(#paint5_linear)"/>
<path d="M40.0255 44.9636L25.4561 53H25.3743V47.4951L40.5166 40.1819L40.0255 44.9636Z" fill="#5A5650"/>
<g style="mix-blend-mode:multiply">
<path d="M10.8857 30.4982L9.90356 30.9402V33.4315C9.92138 34.0801 10.149 34.7063 10.5538 35.2193C10.9585 35.7322 11.5192 36.1053 12.1544 36.2844C12.5204 36.3422 12.8932 36.3422 13.2592 36.2844C13.7159 36.1459 14.1553 35.9572 14.5689 35.7218C14.8344 35.5267 15.0477 35.2711 15.1903 34.9772C15.3329 34.6832 15.4005 34.3595 15.3874 34.0342V31.5429L15.0192 31.0607L10.8857 30.4982Z" fill="#6A6A68"/>
</g>
<path d="M10.5181 30.1365L9.53589 30.5785L10.5181 32.6278C10.5157 33.2816 10.736 33.9174 11.1438 34.4343C11.5516 34.9512 12.1235 35.3195 12.7689 35.4807V35.8021C13.2301 35.6949 13.6718 35.5188 14.0785 35.2798C14.3434 35.0934 14.5571 34.8452 14.7 34.5576C14.8429 34.27 14.9106 33.952 14.8971 33.6323V31.141L10.5181 30.1365Z" fill="#5A5650"/>
<path d="M9.65866 30.699L9.53589 30.4579L10.5181 30.0159L11.0092 30.0962L11.7868 30.257L12.5234 30.4177L14.5288 30.8597L15.0199 30.9802L14.0377 31.4624L12.8099 31.3419L9.65866 30.699Z" fill="#CECECE"/>
<path d="M9.53589 30.4579V32.9492C9.55371 33.5979 9.78161 34.2241 10.1863 34.7371C10.5911 35.25 11.1515 35.6231 11.7867 35.8021C12.0385 35.8829 12.306 35.9055 12.5681 35.868C12.8301 35.8306 13.0798 35.7342 13.2977 35.5864C13.5156 35.4386 13.6956 35.2434 13.824 35.0159C13.9524 34.7885 14.0254 34.535 14.0376 34.2752C14.0576 34.169 14.0576 34.06 14.0376 33.9538V31.4625L9.53589 30.4579Z" fill="#BBBBBC"/>
<path d="M11.5406 33.1501C11.4464 33.0712 11.3716 32.9724 11.322 32.861C11.2724 32.7496 11.2492 32.6287 11.2541 32.5072C11.2447 32.4291 11.2551 32.3499 11.2841 32.2766C11.313 32.2033 11.3597 32.138 11.4202 32.0865C11.4807 32.035 11.5532 31.9988 11.6313 31.9811C11.7093 31.9634 11.7906 31.9647 11.8681 31.9849C12.0479 32.0441 12.2039 32.1576 12.3142 32.3091C12.4244 32.4606 12.483 32.6425 12.4818 32.8287C12.4978 32.9292 12.4783 33.032 12.4261 33.1198C12.3739 33.2076 12.2925 33.2751 12.1955 33.3109L12.6047 34.1547L11.4179 33.9136V33.6323L11.5406 33.1501Z" fill="#383633"/>
<path d="M11.255 33.1501L11.0095 32.7483V32.3465C11.0476 32.222 11.1318 32.116 11.2453 32.0491C11.3588 31.9822 11.4936 31.9593 11.6235 31.9848C11.5121 32.02 11.4158 32.0903 11.3492 32.1847C11.2826 32.2791 11.2494 32.3925 11.255 32.5072C11.2501 32.6287 11.2733 32.7496 11.323 32.861C11.3726 32.9723 11.4474 33.0712 11.5415 33.1501L11.1733 33.9136V34.1948L12.3191 34.4359L10.9685 34.1547V33.8734V33.5118V33.2707L11.255 33.1501Z" fill="#E2E2E2"/>
<path d="M11.5004 30.0963L10.8047 30.4177L13.5467 31.0204L14.2424 30.699L11.5004 30.0963Z" fill="#383633"/>
</g>
<defs>
<linearGradient id="paint0_linear" x1="13.7922" y1="38.6551" x2="13.7922" y2="36.2843" gradientUnits="userSpaceOnUse">
<stop stop-color="#DB8336"/>
<stop offset="1" stop-color="#F68900"/>
</linearGradient>
<linearGradient id="paint1_linear" x1="13.7922" y1="38.6551" x2="13.7922" y2="36.3245" gradientUnits="userSpaceOnUse">
<stop offset="0.04" stop-color="#753B14"/>
<stop offset="1" stop-color="#753B14"/>
</linearGradient>
<linearGradient id="paint2_linear" x1="9.6169" y1="38.454" x2="-0.693084" y2="37.5373" gradientUnits="userSpaceOnUse">
<stop offset="0.08" stop-color="#35332F"/>
<stop offset="1" stop-color="#6D6860"/>
</linearGradient>
<linearGradient id="paint3_linear" x1="2702.13" y1="-1694.85" x2="2701.15" y2="-1696.35" gradientUnits="userSpaceOnUse">
<stop offset="0.04" stop-color="#753B14"/>
<stop offset="1" stop-color="#753B14"/>
</linearGradient>
<linearGradient id="paint4_linear" x1="18.8663" y1="40.3829" x2="40.54" y2="37.1758" gradientUnits="userSpaceOnUse">
<stop stop-color="#9D9C9E"/>
<stop offset="0.31" stop-color="#8B8887"/>
<stop offset="0.75" stop-color="#75716B"/>
<stop offset="1" stop-color="#6D6860"/>
</linearGradient>
<linearGradient id="paint5_linear" x1="31.5131" y1="43.2358" x2="33.3008" y2="46.9584" gradientUnits="userSpaceOnUse">
<stop stop-color="#6D6860"/>
<stop offset="0.25" stop-color="#75716B"/>
<stop offset="0.69" stop-color="#8B8887"/>
<stop offset="1" stop-color="#9D9C9E"/>
</linearGradient>
<clipPath id="clip0">
<rect width="46" height="53" fill="white"/>
</clipPath>
</defs>
</svg>
