<svg width="50" height="42" viewBox="0 0 50 42" fill="none" xmlns="http://www.w3.org/2000/svg">
<g clip-path="url(#clip0)">
<path d="M42.4778 12.4595C42.4765 12.4721 42.4757 12.4844 42.4751 12.4972V12.555C42.4739 12.5454 42.4739 12.5345 42.4729 12.526C42.4026 13.6045 41.2636 14.4625 39.8635 14.4625H39.2407C37.8122 14.4625 36.6527 13.5687 36.6261 12.4589C36.5996 13.5687 35.4406 14.4625 34.012 14.4625H33.3892C31.9617 14.4625 30.802 13.5693 30.7748 12.4597C30.7475 13.5693 29.5893 14.4625 28.1605 14.4625H27.5379C26.1104 14.4625 24.9524 13.5697 24.9239 12.461C24.896 13.5697 23.7378 14.4625 22.3098 14.4625H21.6872C20.2593 14.4625 19.1001 13.5693 19.0728 12.4597C19.0461 13.5697 17.8857 14.4629 16.4581 14.4629H15.8355C14.4104 14.4629 13.252 13.5724 13.2213 12.4655C13.1907 13.5724 12.0329 14.4629 10.6066 14.4629H9.98445C8.55934 14.4629 7.40174 13.5724 7.37059 12.4665C7.36792 12.5355 7.36112 12.6042 7.35024 12.6724C7.19164 13.6808 6.09085 14.4629 4.75491 14.4629H4.13295C4.12542 14.4629 4.11809 14.4619 4.11035 14.4619V39.0957H45.5257V14.4629H45.092C43.6632 14.4629 42.5042 13.5693 42.4778 12.4595Z" fill="white"/>
<path d="M4.11084 4.88623V14.462C4.11858 14.462 4.1259 14.4631 4.13344 14.4631H4.75539C6.09133 14.4631 7.19213 13.681 7.35072 12.6725C7.36161 12.6044 7.3684 12.5357 7.37108 12.4667C7.40223 13.5727 8.56003 14.4631 9.98494 14.4631H10.6071C12.0334 14.4631 13.1912 13.5725 13.2218 12.4657C13.2525 13.5725 14.4101 14.4631 15.836 14.4631H16.4586C17.887 14.4631 19.046 13.5698 19.0733 12.4603C19.1005 13.5698 20.2598 14.4631 21.6877 14.4631H22.3103C23.7383 14.4631 24.8959 13.5703 24.9244 12.4616C24.9525 13.5703 26.1109 14.4631 27.5384 14.4631H28.161C29.5898 14.4631 30.748 13.5698 30.7752 12.4603C30.8025 13.5698 31.9622 14.4631 33.3897 14.4631H34.0125C35.4411 14.4631 36.6001 13.5692 36.6265 12.4595C36.6532 13.5692 37.8126 14.4631 39.2412 14.4631H39.864C41.264 14.4631 42.4031 13.605 42.4734 12.5266C42.4744 12.5358 42.4744 12.5459 42.4756 12.5556V12.4974C42.4756 12.4846 42.477 12.4722 42.4782 12.4597C42.5047 13.5694 43.6637 14.4631 45.0925 14.4631H45.5261V4.88623H4.11084Z" fill="white"/>
<path d="M9.06836 12.7661V34.8658H9.2695L40.4839 12.7661H9.06836Z" fill="white"/>
<path d="M9.27002 34.8658H40.5687V12.7661H40.4844L9.27002 34.8658Z" fill="white"/>
<path d="M47.0228 40.2161C47.0227 40.6892 46.8368 41.1428 46.5059 41.4772C46.175 41.8116 45.7262 41.9995 45.2583 41.9995H4.37806C3.91017 41.9995 3.46145 41.8116 3.13059 41.4772C2.79973 41.1427 2.61382 40.6891 2.61377 40.2161C2.61374 39.9819 2.65936 39.75 2.74801 39.5335C2.83666 39.3171 2.96661 39.1205 3.13044 38.9548C3.29428 38.7892 3.48878 38.6578 3.70285 38.5682C3.91691 38.4785 4.14635 38.4324 4.37806 38.4324H45.2583C45.7263 38.4324 46.1751 38.6204 46.506 38.9549C46.8369 39.2894 47.0228 39.7431 47.0228 40.2161Z" fill="white"/>
<path d="M11.1496 2.62029L11.1506 2.55423L11.1484 2.53571L11.147 2.62029H11.1496Z" fill="white"/>
<path d="M5.50339 8.80432C5.49586 8.8603 5.48874 8.9167 5.47754 8.97186C5.48344 9.00623 5.4926 9.03977 5.49973 9.07476C5.50808 9.0408 5.51785 9.00767 5.52497 8.9735C5.51561 8.91732 5.5097 8.86071 5.50339 8.80432Z" fill="white"/>
<path d="M10.9756 8.06939L11.1484 2.62012H11.1458L10.9756 8.06939Z" fill="white"/>
<path d="M27.5877 2.76514L27.5869 2.82297L27.6014 2.82318L27.602 2.76514H27.5877Z" fill="white"/>
<path d="M38.5725 2.91851L37.3633 1.06311L38.5723 2.92612L38.5725 2.91851Z" fill="white"/>
<path d="M5.50403 8.80416C5.49914 8.75785 5.49446 8.71134 5.49202 8.664C5.48774 8.59897 5.48408 8.53372 5.4851 8.46725L5.66201 2.54378L0.177177 2.46722L0.000258367 8.39028C-0.00461374 8.74378 0.0594634 9.09479 0.188827 9.42325C0.318191 9.75172 0.510308 10.0512 0.754199 10.3046C0.998091 10.558 1.28898 10.7603 1.61024 10.9C1.9315 11.0397 2.27684 11.114 2.62653 11.1187L2.88224 11.1222C3.48355 11.1302 4.06982 10.9321 4.54546 10.5601C5.0211 10.1881 5.35805 9.6642 5.50138 9.07378C5.49426 9.03961 5.4851 9.00606 5.47919 8.97087C5.48937 8.91654 5.4965 8.86014 5.50403 8.80416Z" fill="white"/>
<path d="M11.1468 2.62027L5.66198 2.5437L5.48507 8.46716C5.48405 8.53364 5.4869 8.59909 5.49199 8.66392C5.49443 8.71126 5.49911 8.75777 5.504 8.80408C5.51031 8.86047 5.51622 8.91707 5.52558 8.97244C5.51846 9.0066 5.50868 9.03974 5.50034 9.07369C5.62779 9.66776 5.95049 10.2007 6.41586 10.5856C6.88123 10.9706 7.46185 11.1849 8.06309 11.1936L8.31819 11.1971C9.72009 11.2176 10.9298 10.1384 11.0534 8.75078C10.999 8.52769 10.9731 8.29846 10.9764 8.06872L11.1468 2.62027Z" fill="white"/>
<path d="M5.48506 8.46716C5.48404 8.53364 5.4877 8.59888 5.49198 8.66392C5.48709 8.59909 5.48404 8.53364 5.48506 8.46716Z" fill="white"/>
<path d="M16.6313 2.69668L11.1489 2.62012L10.9759 8.06961C10.9725 8.29935 10.9984 8.52858 11.0528 8.75167C11.1941 9.32951 11.5208 9.84371 11.9819 10.2139C12.443 10.5841 13.0124 10.7894 13.6011 10.7976L13.8566 10.8009C14.4758 10.8093 15.0786 10.5992 15.5612 10.2069C16.0437 9.81454 16.3759 9.26444 16.5006 8.65123C16.4715 8.48439 16.4578 8.31516 16.4599 8.14575L16.6313 2.69668Z" fill="white"/>
<path d="M22.116 2.77328L16.6316 2.69672L16.4602 8.14578C16.4581 8.31519 16.4717 8.48442 16.5009 8.65126C16.6087 9.26798 16.926 9.82739 17.3979 10.2331C17.8698 10.6388 18.467 10.8655 19.0864 10.874L19.3421 10.8777C19.943 10.8859 20.5288 10.6885 21.0046 10.3174C21.4803 9.94638 21.8179 9.42359 21.9625 8.83402C21.9478 8.71298 21.941 8.59108 21.9422 8.46912L22.116 2.77328Z" fill="white"/>
<path d="M27.6007 2.84999L22.1159 2.77344L21.942 8.46928C21.9409 8.59124 21.9477 8.71313 21.9624 8.83418C22.0408 9.48003 22.348 10.0753 22.8271 10.5099C23.3062 10.9445 23.9247 11.189 24.5683 11.1981L24.824 11.2014C25.4434 11.21 26.0463 11 26.529 10.6076C27.0117 10.2152 27.344 9.66491 27.4686 9.05151C27.4393 8.88469 27.4257 8.71546 27.4279 8.54605L27.6007 2.84999Z" fill="white"/>
<path d="M33.0867 2.92642L27.6018 2.84985L27.428 8.5459C27.4258 8.71531 27.4394 8.88455 27.4687 9.05137C27.5765 9.6681 27.8938 10.2275 28.3657 10.6332C28.8376 11.0389 29.4348 11.2656 30.0542 11.2741L30.3099 11.2774C30.9894 11.2866 31.6465 11.0328 32.1468 10.568C32.6471 10.1032 32.9527 9.4626 33.001 8.77744C32.944 8.54964 32.9166 8.31531 32.9195 8.08036L33.0867 2.92642Z" fill="white"/>
<path d="M38.5701 3.00269L33.0852 2.92633L32.9187 8.08027C32.9157 8.31522 32.9431 8.54956 33.0001 8.77735C33.144 9.35185 33.4714 9.86229 33.9315 10.2295C34.3917 10.5967 34.9588 10.8002 35.5449 10.8083L35.8004 10.8122C36.4014 10.8205 36.9873 10.623 37.4631 10.2518C37.9389 9.88072 38.2765 9.35779 38.421 8.76809C38.4061 8.64712 38.3993 8.52528 38.4007 8.40339L38.5701 3.00269Z" fill="white"/>
<path d="M44.0554 3.07936L38.5699 3.00281L38.4001 8.40433C38.3912 9.11794 38.6628 9.80597 39.1552 10.3174C39.6475 10.8289 40.3205 11.122 41.0264 11.1324L41.2819 11.1359C41.9012 11.1443 42.5041 10.9343 42.9867 10.5418C43.4694 10.1494 43.8015 9.5991 43.9261 8.98574C43.8968 8.81913 43.8832 8.6501 43.8854 8.48089L44.0554 3.07936Z" fill="white"/>
<path d="M44.0563 3.07947L43.8865 8.48018C43.8769 9.19371 44.1479 9.8819 44.64 10.3935C45.132 10.9052 45.8049 11.1984 46.5107 11.2088L46.7666 11.2125C47.4726 11.2224 48.1536 10.9483 48.6597 10.4506C49.1658 9.95287 49.4556 9.27231 49.4654 8.55859L49.6353 3.15727L44.0563 3.07947Z" fill="white"/>
<path d="M22.118 2.68852L22.1546 0H22.1542L22.1172 2.68872L22.118 2.68852Z" fill="white"/>
<path d="M36.6732 0H36.6699L37.3628 1.06302L36.6732 0Z" fill="white"/>
<path d="M44.0568 2.99477L40.9827 0H40.9595L44.0564 3.01802L44.0568 2.99477Z" fill="white"/>
<path d="M38.5725 2.91851L37.3633 1.06311L38.5723 2.92612L38.5725 2.91851Z" fill="white"/>
<path d="M27.6014 2.82318L27.602 2.76514H27.5877L27.5869 2.82297L27.6014 2.82318Z" fill="white"/>
<path d="M12.7824 0L11.1484 2.5356L12.7881 0H12.7824Z" fill="white"/>
<path d="M8.1375 0H4.15656L0.178671 2.38268L0.177246 2.46727L5.66229 2.54363L5.66351 2.45924L8.1375 0Z" fill="white"/>
<path d="M8.13732 0L5.66333 2.45924L5.66211 2.54363L11.1467 2.62019L11.1482 2.5356L12.7822 0H8.13732Z" fill="white"/>
<path d="M17.5962 0H12.7881L11.1484 2.5356L11.1507 2.55412L11.1497 2.62019L16.6321 2.69675L16.6331 2.61216L17.5962 0Z" fill="white"/>
<path d="M22.1543 0H17.596L16.6329 2.61216L16.6318 2.69675L22.1165 2.77331L22.1173 2.68872L22.1543 0Z" fill="white"/>
<path d="M27.5875 2.82291L27.5883 2.76508L27.6262 0H22.155L22.1183 2.68852L22.1175 2.68872L22.1167 2.77331L27.6015 2.84967L27.6019 2.82312L27.5875 2.82291Z" fill="white"/>
<path d="M32.0349 0H27.6262L27.5884 2.76508H27.6026L27.602 2.82312L27.6016 2.84967L33.0863 2.92644L33.0875 2.84185L32.0349 0Z" fill="white"/>
<path d="M37.3627 1.06302L36.6699 0H32.0347L33.0872 2.84185L33.086 2.92644L38.5708 3.00279L38.5718 2.92603L37.3627 1.06302Z" fill="white"/>
<path d="M40.9597 0H36.6733L37.3629 1.06302L38.5722 2.91841L38.572 2.92602L38.571 3.00279L44.0557 3.07935L44.0567 3.01802L40.9597 0Z" fill="white"/>
<path d="M45.2665 0H40.9824L44.0566 2.99477L44.0562 3.01802L44.0552 3.07936L49.6351 3.15695L49.6361 3.07277L45.2665 0Z" fill="white"/>
</g>
<defs>
<clipPath id="clip0">
<rect width="49.6364" height="42" fill="white"/>
</clipPath>
</defs>
</svg>
