<svg width="11" height="12" viewBox="0 0 11 12" fill="none" xmlns="http://www.w3.org/2000/svg">
<path d="M1.89702 9.17703C1.84069 9.12075 1.7893 9.06145 1.74174 9.00012L0.216919 10.5242L1.13706 11.4438L2.66192 9.9198C2.60056 9.87226 2.54125 9.82088 2.48492 9.7646L1.89702 9.17703Z" fill="#AFAFAF"/>
<path d="M9.25807 9.00024C9.21051 9.06159 9.15912 9.12088 9.10281 9.17715L8.51493 9.76472C8.45863 9.821 8.39931 9.87236 8.33795 9.91992L9.86264 11.4438L10.7828 10.5241L9.25807 9.00024Z" fill="#AFAFAF"/>
<path d="M6.04991 9.46983L6.1138 9.53369C6.58672 10.0063 7.35338 10.0063 7.8263 9.53369L8.873 8.48756C9.34588 8.01491 9.34588 7.24863 8.873 6.77596L8.80909 6.7121L8.11751 7.40166L7.33867 6.62323L5.95865 8.00252L6.73749 8.78096L6.04991 9.46983Z" fill="#AFAFAF"/>
<path d="M5.03966 4.3238L3.10214 2.38732C2.27649 1.56206 1.2419 0.976638 0.109051 0.693569L0 0.666321L0.0272627 0.775336C0.310481 1.90757 0.896231 2.94159 1.72193 3.76683L3.65945 5.70333L5.03966 4.3238Z" fill="#AFAFAF"/>
<path d="M9.27814 3.76679C10.1038 2.94153 10.6896 1.90753 10.9728 0.775296L11.0001 0.66626L10.891 0.693508C9.75819 0.976577 8.72359 1.56202 7.89793 2.38728L2.88098 7.40164L2.1909 6.71193L2.12701 6.77579C1.65411 7.24843 1.65411 8.01474 2.12701 8.48738L3.17492 9.53474C3.64781 10.0074 4.4145 10.0074 4.88741 9.53474L4.95131 9.47088L4.26119 8.78115L9.27814 3.76679Z" fill="#AFAFAF"/>
</svg>
