<svg width="14" height="14" viewBox="0 0 14 14" fill="none" xmlns="http://www.w3.org/2000/svg">
<path d="M8.15896 6.11915C8.18251 6.19495 8.1629 6.27749 8.1078 6.33466L1.92586 12.8557C1.73798 13.0506 1.44317 13.1104 1.19046 12.9977C0.685698 12.7722 0.283463 12.3708 0.05746 11.8677C-0.056765 11.6134 0.00279516 11.3148 0.205137 11.1249L6.76435 4.8899C6.82146 4.8363 6.90316 4.81756 6.97795 4.84081L7.73619 5.07647C7.80459 5.09773 7.85833 5.15134 7.87957 5.21974L8.15896 6.11915Z" fill="#FFA2CF"/>
<path d="M12.347 4.95603L10.954 4.93835L10.1496 6.07571C9.81702 6.5455 9.08843 6.43228 8.91647 5.88043L8.50308 4.54998L7.17263 4.1366C6.62261 3.96518 6.50583 3.23729 6.97736 2.90351L8.11472 2.09931L8.09704 0.70604C8.08942 0.130644 8.74611 -0.205993 9.20937 0.139538L10.3258 0.972565L11.6451 0.525183C12.1915 0.340111 12.7129 0.86163 12.5279 1.40798L12.0805 2.72728L12.9138 3.84397C13.2591 4.30715 12.9222 4.96364 12.347 4.95603Z" fill="#FFA2CF"/>
</svg>
