<svg width="16" height="16" viewBox="0 0 16 16" fill="none" xmlns="http://www.w3.org/2000/svg">
<path d="M10 7.5007C10.0289 7.5936 10.0048 7.69477 9.9373 7.76483L2.36042 15.7574C2.13015 15.9962 1.76882 16.0695 1.45909 15.9314C0.840424 15.655 0.347425 15.163 0.0704257 14.5464C-0.0695739 14.2347 0.00342588 13.8687 0.251425 13.636L8.2907 5.99407C8.3607 5.92837 8.46084 5.90541 8.5525 5.93391L9.48184 6.22274C9.56567 6.24881 9.63154 6.31451 9.65757 6.39834L10 7.5007Z" fill="#AAAAAA"/>
<path d="M15.133 6.07434L13.4256 6.05267L12.4396 7.44667C12.0321 8.02247 11.1391 7.8837 10.9283 7.20734L10.4216 5.57668L8.79098 5.07001C8.11685 4.85991 7.97371 3.96778 8.55165 3.55868L9.94564 2.57302L9.92397 0.865355C9.91464 0.160124 10.7195 -0.252475 11.2873 0.171024L12.6556 1.19202L14.2726 0.643689C14.9424 0.416857 15.5814 1.05605 15.3546 1.72569L14.8063 3.34268L15.8276 4.71134C16.2509 5.27904 15.8379 6.08367 15.133 6.07434Z" fill="#AAAAAA"/>
</svg>
