<svg width="17" height="16" viewBox="0 0 17 16" fill="none" xmlns="http://www.w3.org/2000/svg">
<path d="M2.81418 12.6357C2.7306 12.5521 2.65435 12.4641 2.58377 12.373L0.321289 14.6356L1.68657 16.0009L3.94912 13.7384C3.85808 13.6678 3.77007 13.5915 3.68649 13.508L2.81418 12.6357Z" fill="#AAAAAA"/>
<path d="M13.7373 12.373C13.6667 12.4641 13.5905 12.5521 13.5069 12.6357L12.6347 13.508C12.5511 13.5915 12.4631 13.6678 12.3721 13.7384L14.6344 16.0007L15.9997 14.6353L13.7373 12.373Z" fill="#AAAAAA"/>
<path d="M8.97623 13.0697L9.07103 13.1645C9.77274 13.8662 10.9103 13.8662 11.612 13.1645L13.1651 11.6114C13.8667 10.9098 13.8667 9.77219 13.1651 9.07049L13.0702 8.97569L12.0441 9.99938L10.8885 8.84375L8.84082 10.8914L9.99645 12.047L8.97623 13.0697Z" fill="#AAAAAA"/>
<path d="M7.47772 5.42973L4.60288 2.55492C3.37779 1.32977 1.8427 0.460683 0.161806 0.0404516L0 0L0.0404516 0.161838C0.460683 1.8427 1.3298 3.37776 2.55495 4.60288L5.42979 7.47772L7.47772 5.42973Z" fill="#AAAAAA"/>
<path d="M13.7658 4.60291C14.991 3.37776 15.8601 1.84273 16.2803 0.16187L16.3208 0L16.1589 0.0404516C14.4781 0.460683 12.943 1.3298 11.7179 2.55495L4.27387 9.99904L3.24996 8.97513L3.15516 9.06993C2.45349 9.7716 2.45349 10.9092 3.15516 11.6109L4.71001 13.1657C5.41168 13.8674 6.54927 13.8674 7.25097 13.1657L7.34578 13.0709L6.3218 12.047L13.7658 4.60291Z" fill="#AAAAAA"/>
</svg>
